<svg xmlns="http://www.w3.org/2000/svg"  viewBox="0 0 64 64" width="64px" height="64px"><path fill="#85cbf8" d="M32 5A27 27 0 1 0 32 59A27 27 0 1 0 32 5Z"/><path fill="#f283a5" d="M32 11A21 21 0 1 0 32 53A21 21 0 1 0 32 11Z"/><path fill="#f9dd8f" d="M32 19A13 13 0 1 0 32 45A13 13 0 1 0 32 19Z"/><path fill="#8d6c9f" d="M32,61C16.01,61,3,47.991,3,32S16.01,3,32,3s29,13.009,29,29S47.99,61,32,61z M32,5 C17.112,5,5,17.112,5,32s12.112,27,27,27s27-12.112,27-27S46.888,5,32,5z"/><path fill="#8d6c9f" d="M11.518 37.659c-.457 0-.869-.315-.975-.779C10.183 35.286 10 33.644 10 32c0-12.131 9.869-22 22-22 2.1 0 4.177.295 6.173.878.53.155.834.71.68 1.24-.154.53-.709.835-1.24.68C35.798 12.269 33.91 12 32 12c-11.028 0-20 8.972-20 20 0 1.496.166 2.989.494 4.438.122.539-.217 1.074-.755 1.196C11.665 37.651 11.591 37.659 11.518 37.659zM46.752 18.054c-.254 0-.508-.096-.702-.288-1.165-1.149-2.467-2.153-3.868-2.984-.476-.282-.632-.895-.351-1.37.281-.476.896-.632 1.37-.351 1.541.914 2.972 2.017 4.253 3.281.394.388.397 1.021.01 1.414C47.269 17.954 47.01 18.054 46.752 18.054zM32 54c-1.646 0-3.289-.183-4.88-.543-.539-.122-.877-.657-.755-1.196.122-.539.657-.879 1.196-.754C29.009 51.834 30.502 52 32 52c11.028 0 20-8.972 20-20 0-3.649-.991-7.219-2.867-10.325-.286-.473-.135-1.087.338-1.373.475-.287 1.088-.134 1.373.339C52.909 24.059 54 27.986 54 32 54 44.131 44.131 54 32 54zM11.909 41.951c-.383 0-.748-.221-.914-.593-.226-.504.001-1.096.506-1.321l1.826-.815c.505-.225 1.095.002 1.32.505.226.504-.001 1.096-.506 1.321l-1.826.815C12.184 41.922 12.045 41.951 11.909 41.951zM14.672 46.541c-.297 0-.592-.132-.788-.384-.341-.435-.264-1.063.171-1.404l1.575-1.232c.435-.342 1.064-.263 1.403.171.341.435.264 1.063-.171 1.404l-1.575 1.232C15.104 46.471 14.887 46.541 14.672 46.541zM18.458 50.329c-.215 0-.433-.069-.615-.212-.435-.34-.512-.969-.171-1.404l1.232-1.575c.338-.434.968-.512 1.403-.171.435.34.512.969.171 1.404l-1.232 1.575C19.05 50.197 18.755 50.329 18.458 50.329zM23.049 53.092c-.136 0-.274-.028-.406-.087-.505-.225-.731-.816-.506-1.32l.814-1.826c.225-.504.817-.731 1.32-.506.505.225.731.816.506 1.32l-.814 1.826C23.797 52.871 23.432 53.092 23.049 53.092z"/><path fill="#8d6c9f" d="M32,46c-7.72,0-14-6.28-14-14s6.28-14,14-14s14,6.28,14,14S39.72,46,32,46z M32,20 c-6.617,0-12,5.383-12,12s5.383,12,12,12s12-5.383,12-12S38.617,20,32,20z"/><path fill="#8d6c9f" d="M32 30A2 2 0 1 0 32 34 2 2 0 1 0 32 30zM26 33H1c-.553 0-1-.448-1-1s.447-1 1-1h25c.553 0 1 .448 1 1S26.553 33 26 33z"/><g><path fill="#8d6c9f" d="M63,33H38c-0.553,0-1-0.448-1-1s0.447-1,1-1h25c0.553,0,1,0.448,1,1S63.553,33,63,33z"/></g><g><path fill="#8d6c9f" d="M32,64c-0.553,0-1-0.448-1-1V38c0-0.552,0.447-1,1-1s1,0.448,1,1v25C33,63.552,32.553,64,32,64z"/></g><g><path fill="#8d6c9f" d="M32,27c-0.553,0-1-0.448-1-1V1c0-0.552,0.447-1,1-1s1,0.448,1,1v25C33,26.552,32.553,27,32,27z"/></g></svg>